<mxfile host="app.diagrams.net" modified="2021-08-31T10:01:41.525Z" agent="5.0 (Macintosh; Intel Mac OS X 10_15_7) AppleWebKit/537.36 (KHTML, like Gecko) Chrome/92.0.4515.131 Safari/537.36" etag="cVxUdxsZZfsJ3kZSpXRb" version="15.0.3" type="github">
  <diagram id="_3MNf_Sm-s--1B_T6NlN" name="第 1 页">
    <mxGraphModel dx="2893" dy="2243" grid="1" gridSize="10" guides="1" tooltips="1" connect="1" arrows="1" fold="1" page="1" pageScale="1" pageWidth="827" pageHeight="1169" math="0" shadow="0">
      <root>
        <mxCell id="0" />
        <mxCell id="1" parent="0" />
        <mxCell id="_aXG8rA2rc2TQCkW96PT-1" value="&lt;font style=&quot;font-size: 16px&quot;&gt;ui&lt;/font&gt;" style="shape=umlFrame;whiteSpace=wrap;html=1;strokeColor=#82b366;fillColor=#d5e8d4;width=80;height=60;" vertex="1" parent="1">
          <mxGeometry x="-600" y="-30" width="1010" height="960" as="geometry" />
        </mxCell>
        <mxCell id="_aXG8rA2rc2TQCkW96PT-2" value="&lt;font style=&quot;font-size: 16px&quot;&gt;model&lt;/font&gt;" style="shape=umlFrame;whiteSpace=wrap;html=1;fillColor=#FFF2CC;width=80;height=60;strokeColor=#D6B656;" vertex="1" parent="1">
          <mxGeometry x="430" y="-30" width="990" height="960" as="geometry" />
        </mxCell>
        <mxCell id="_aXG8rA2rc2TQCkW96PT-3" value="ITUIPlayerView" style="swimlane;fontStyle=3;align=center;verticalAlign=top;childLayout=stackLayout;horizontal=1;startSize=26;horizontalStack=0;resizeParent=1;resizeParentMax=0;resizeLast=0;collapsible=1;marginBottom=0;" vertex="1" parent="1">
          <mxGeometry x="210" y="269" width="160" height="60" as="geometry" />
        </mxCell>
        <mxCell id="_aXG8rA2rc2TQCkW96PT-4" value="" style="line;strokeWidth=1;fillColor=none;align=left;verticalAlign=middle;spacingTop=-1;spacingLeft=3;spacingRight=3;rotatable=0;labelPosition=right;points=[];portConstraint=eastwest;" vertex="1" parent="_aXG8rA2rc2TQCkW96PT-3">
          <mxGeometry y="26" width="160" height="8" as="geometry" />
        </mxCell>
        <mxCell id="_aXG8rA2rc2TQCkW96PT-5" value="+ method(type): type" style="text;strokeColor=none;fillColor=none;align=left;verticalAlign=top;spacingLeft=4;spacingRight=4;overflow=hidden;rotatable=0;points=[[0,0.5],[1,0.5]];portConstraint=eastwest;" vertex="1" parent="_aXG8rA2rc2TQCkW96PT-3">
          <mxGeometry y="34" width="160" height="26" as="geometry" />
        </mxCell>
        <mxCell id="_aXG8rA2rc2TQCkW96PT-6" value="TUIPlayerPresent" style="swimlane;fontStyle=1;align=center;verticalAlign=top;childLayout=stackLayout;horizontal=1;startSize=26;horizontalStack=0;resizeParent=1;resizeParentMax=0;resizeLast=0;collapsible=1;marginBottom=0;" vertex="1" parent="1">
          <mxGeometry x="470" y="190" width="210" height="210" as="geometry" />
        </mxCell>
        <mxCell id="_aXG8rA2rc2TQCkW96PT-7" value="+ field: ITUIPlayerView&#xa;+ filed: ITUIPlayerSignallingService&#xa;+ filed: ITUIPlayerStreamService" style="text;strokeColor=none;fillColor=none;align=left;verticalAlign=top;spacingLeft=4;spacingRight=4;overflow=hidden;rotatable=0;points=[[0,0.5],[1,0.5]];portConstraint=eastwest;" vertex="1" parent="_aXG8rA2rc2TQCkW96PT-6">
          <mxGeometry y="26" width="210" height="54" as="geometry" />
        </mxCell>
        <mxCell id="_aXG8rA2rc2TQCkW96PT-8" value="" style="line;strokeWidth=1;fillColor=none;align=left;verticalAlign=middle;spacingTop=-1;spacingLeft=3;spacingRight=3;rotatable=0;labelPosition=right;points=[];portConstraint=eastwest;" vertex="1" parent="_aXG8rA2rc2TQCkW96PT-6">
          <mxGeometry y="80" width="210" height="8" as="geometry" />
        </mxCell>
        <mxCell id="_aXG8rA2rc2TQCkW96PT-9" value="+ init()&#xa;+ startPlay(url)&#xa;+ stopPlay()&#xa;+ requestLink()&#xa;+ stopLink()" style="text;strokeColor=none;fillColor=none;align=left;verticalAlign=top;spacingLeft=4;spacingRight=4;overflow=hidden;rotatable=0;points=[[0,0.5],[1,0.5]];portConstraint=eastwest;" vertex="1" parent="_aXG8rA2rc2TQCkW96PT-6">
          <mxGeometry y="88" width="210" height="122" as="geometry" />
        </mxCell>
        <mxCell id="_aXG8rA2rc2TQCkW96PT-14" value="" style="endArrow=block;dashed=1;endFill=0;endSize=12;html=1;entryX=0.485;entryY=0.987;entryDx=0;entryDy=0;entryPerimeter=0;" edge="1" parent="1" target="_aXG8rA2rc2TQCkW96PT-5">
          <mxGeometry width="160" relative="1" as="geometry">
            <mxPoint x="288" y="400" as="sourcePoint" />
            <mxPoint x="470" y="410" as="targetPoint" />
          </mxGeometry>
        </mxCell>
        <mxCell id="_aXG8rA2rc2TQCkW96PT-15" value="TUIPlayerSignallingService" style="swimlane;fontStyle=1;align=center;verticalAlign=top;childLayout=stackLayout;horizontal=1;startSize=26;horizontalStack=0;resizeParent=1;resizeParentMax=0;resizeLast=0;collapsible=1;marginBottom=0;" vertex="1" parent="1">
          <mxGeometry x="730" y="520" width="225" height="134" as="geometry" />
        </mxCell>
        <mxCell id="_aXG8rA2rc2TQCkW96PT-16" value="+ field: ITUIPlayerSignallingListener&#xa;+ field:  SDKManagerClass" style="text;strokeColor=none;fillColor=none;align=left;verticalAlign=top;spacingLeft=4;spacingRight=4;overflow=hidden;rotatable=0;points=[[0,0.5],[1,0.5]];portConstraint=eastwest;" vertex="1" parent="_aXG8rA2rc2TQCkW96PT-15">
          <mxGeometry y="26" width="225" height="54" as="geometry" />
        </mxCell>
        <mxCell id="_aXG8rA2rc2TQCkW96PT-17" value="" style="line;strokeWidth=1;fillColor=none;align=left;verticalAlign=middle;spacingTop=-1;spacingLeft=3;spacingRight=3;rotatable=0;labelPosition=right;points=[];portConstraint=eastwest;" vertex="1" parent="_aXG8rA2rc2TQCkW96PT-15">
          <mxGeometry y="80" width="225" height="28" as="geometry" />
        </mxCell>
        <mxCell id="_aXG8rA2rc2TQCkW96PT-18" value="+ method(type): type" style="text;strokeColor=none;fillColor=none;align=left;verticalAlign=top;spacingLeft=4;spacingRight=4;overflow=hidden;rotatable=0;points=[[0,0.5],[1,0.5]];portConstraint=eastwest;" vertex="1" parent="_aXG8rA2rc2TQCkW96PT-15">
          <mxGeometry y="108" width="225" height="26" as="geometry" />
        </mxCell>
        <mxCell id="_aXG8rA2rc2TQCkW96PT-19" value="" style="endArrow=block;dashed=1;endFill=0;endSize=12;html=1;entryX=0.59;entryY=0.986;entryDx=0;entryDy=0;entryPerimeter=0;" edge="1" parent="1" target="_aXG8rA2rc2TQCkW96PT-44">
          <mxGeometry width="160" relative="1" as="geometry">
            <mxPoint x="839" y="520" as="sourcePoint" />
            <mxPoint x="834" y="400" as="targetPoint" />
          </mxGeometry>
        </mxCell>
        <mxCell id="_aXG8rA2rc2TQCkW96PT-20" value="" style="endArrow=open;endFill=1;endSize=12;html=1;exitX=0.996;exitY=0.274;exitDx=0;exitDy=0;entryX=0.5;entryY=0;entryDx=0;entryDy=0;exitPerimeter=0;" edge="1" parent="1" source="_aXG8rA2rc2TQCkW96PT-9" target="_aXG8rA2rc2TQCkW96PT-42">
          <mxGeometry width="160" relative="1" as="geometry">
            <mxPoint x="430" y="350" as="sourcePoint" />
            <mxPoint x="730" y="300" as="targetPoint" />
            <Array as="points">
              <mxPoint x="823" y="310" />
            </Array>
          </mxGeometry>
        </mxCell>
        <mxCell id="_aXG8rA2rc2TQCkW96PT-21" value="" style="endArrow=open;endFill=1;endSize=12;html=1;exitX=1;exitY=0.5;exitDx=0;exitDy=0;" edge="1" parent="1" source="_aXG8rA2rc2TQCkW96PT-74">
          <mxGeometry width="160" relative="1" as="geometry">
            <mxPoint x="390" y="440" as="sourcePoint" />
            <mxPoint x="560" y="400" as="targetPoint" />
            <Array as="points">
              <mxPoint x="560" y="443" />
            </Array>
          </mxGeometry>
        </mxCell>
        <mxCell id="_aXG8rA2rc2TQCkW96PT-22" value="" style="endArrow=open;endFill=1;endSize=12;html=1;entryX=0.5;entryY=0;entryDx=0;entryDy=0;" edge="1" parent="1" target="_aXG8rA2rc2TQCkW96PT-3">
          <mxGeometry width="160" relative="1" as="geometry">
            <mxPoint x="469" y="202" as="sourcePoint" />
            <mxPoint x="380" y="400" as="targetPoint" />
            <Array as="points">
              <mxPoint x="290" y="202" />
            </Array>
          </mxGeometry>
        </mxCell>
        <mxCell id="_aXG8rA2rc2TQCkW96PT-23" value="ITUIPlayerStreamService" style="swimlane;fontStyle=3;align=center;verticalAlign=top;childLayout=stackLayout;horizontal=1;startSize=26;horizontalStack=0;resizeParent=1;resizeParentMax=0;resizeLast=0;collapsible=1;marginBottom=0;" vertex="1" parent="1">
          <mxGeometry x="1125" y="340" width="190" height="54" as="geometry" />
        </mxCell>
        <mxCell id="_aXG8rA2rc2TQCkW96PT-24" value="" style="line;strokeWidth=1;fillColor=none;align=left;verticalAlign=middle;spacingTop=-1;spacingLeft=3;spacingRight=3;rotatable=0;labelPosition=right;points=[];portConstraint=eastwest;" vertex="1" parent="_aXG8rA2rc2TQCkW96PT-23">
          <mxGeometry y="26" width="190" height="8" as="geometry" />
        </mxCell>
        <mxCell id="_aXG8rA2rc2TQCkW96PT-25" value="+ method(type): type" style="text;strokeColor=none;fillColor=none;align=left;verticalAlign=top;spacingLeft=4;spacingRight=4;overflow=hidden;rotatable=0;points=[[0,0.5],[1,0.5]];portConstraint=eastwest;" vertex="1" parent="_aXG8rA2rc2TQCkW96PT-23">
          <mxGeometry y="34" width="190" height="20" as="geometry" />
        </mxCell>
        <mxCell id="_aXG8rA2rc2TQCkW96PT-26" value="TUIPlayerStreamService" style="swimlane;fontStyle=1;align=center;verticalAlign=top;childLayout=stackLayout;horizontal=1;startSize=26;horizontalStack=0;resizeParent=1;resizeParentMax=0;resizeLast=0;collapsible=1;marginBottom=0;" vertex="1" parent="1">
          <mxGeometry x="1120" y="510" width="210" height="110" as="geometry" />
        </mxCell>
        <mxCell id="_aXG8rA2rc2TQCkW96PT-27" value="+ field: ITUIPlayerStreamListener&#xa;+ field:  SDKManagerClass" style="text;strokeColor=none;fillColor=none;align=left;verticalAlign=top;spacingLeft=4;spacingRight=4;overflow=hidden;rotatable=0;points=[[0,0.5],[1,0.5]];portConstraint=eastwest;" vertex="1" parent="_aXG8rA2rc2TQCkW96PT-26">
          <mxGeometry y="26" width="210" height="54" as="geometry" />
        </mxCell>
        <mxCell id="_aXG8rA2rc2TQCkW96PT-28" value="" style="line;strokeWidth=1;fillColor=none;align=left;verticalAlign=middle;spacingTop=-1;spacingLeft=3;spacingRight=3;rotatable=0;labelPosition=right;points=[];portConstraint=eastwest;" vertex="1" parent="_aXG8rA2rc2TQCkW96PT-26">
          <mxGeometry y="80" width="210" height="10" as="geometry" />
        </mxCell>
        <mxCell id="_aXG8rA2rc2TQCkW96PT-29" value="+ method(type): type" style="text;strokeColor=none;fillColor=none;align=left;verticalAlign=top;spacingLeft=4;spacingRight=4;overflow=hidden;rotatable=0;points=[[0,0.5],[1,0.5]];portConstraint=eastwest;" vertex="1" parent="_aXG8rA2rc2TQCkW96PT-26">
          <mxGeometry y="90" width="210" height="20" as="geometry" />
        </mxCell>
        <mxCell id="_aXG8rA2rc2TQCkW96PT-30" value="" style="endArrow=block;dashed=1;endFill=0;endSize=12;html=1;exitX=0.5;exitY=0;exitDx=0;exitDy=0;entryX=0.504;entryY=0.967;entryDx=0;entryDy=0;entryPerimeter=0;" edge="1" parent="1" source="_aXG8rA2rc2TQCkW96PT-26" target="_aXG8rA2rc2TQCkW96PT-25">
          <mxGeometry width="160" relative="1" as="geometry">
            <mxPoint x="1219.1100000000001" y="460.00399999999996" as="sourcePoint" />
            <mxPoint x="1216" y="372" as="targetPoint" />
          </mxGeometry>
        </mxCell>
        <mxCell id="_aXG8rA2rc2TQCkW96PT-31" value="" style="endArrow=open;endFill=1;endSize=12;html=1;exitX=1.018;exitY=0.084;exitDx=0;exitDy=0;entryX=0.5;entryY=0;entryDx=0;entryDy=0;exitPerimeter=0;" edge="1" parent="1" source="_aXG8rA2rc2TQCkW96PT-9" target="_aXG8rA2rc2TQCkW96PT-23">
          <mxGeometry width="160" relative="1" as="geometry">
            <mxPoint x="639.6800000000001" y="211.38800000000003" as="sourcePoint" />
            <mxPoint x="740" y="310" as="targetPoint" />
            <Array as="points">
              <mxPoint x="1220" y="284" />
            </Array>
          </mxGeometry>
        </mxCell>
        <mxCell id="_aXG8rA2rc2TQCkW96PT-32" value="IMSDK" style="swimlane;fontStyle=1;align=center;verticalAlign=top;childLayout=stackLayout;horizontal=1;startSize=26;horizontalStack=0;resizeParent=1;resizeParentMax=0;resizeLast=0;collapsible=1;marginBottom=0;" vertex="1" parent="1">
          <mxGeometry x="745" y="730" width="195" height="86" as="geometry" />
        </mxCell>
        <mxCell id="_aXG8rA2rc2TQCkW96PT-33" value="+ field: type" style="text;strokeColor=none;fillColor=none;align=left;verticalAlign=top;spacingLeft=4;spacingRight=4;overflow=hidden;rotatable=0;points=[[0,0.5],[1,0.5]];portConstraint=eastwest;" vertex="1" parent="_aXG8rA2rc2TQCkW96PT-32">
          <mxGeometry y="26" width="195" height="26" as="geometry" />
        </mxCell>
        <mxCell id="_aXG8rA2rc2TQCkW96PT-34" value="" style="line;strokeWidth=1;fillColor=none;align=left;verticalAlign=middle;spacingTop=-1;spacingLeft=3;spacingRight=3;rotatable=0;labelPosition=right;points=[];portConstraint=eastwest;" vertex="1" parent="_aXG8rA2rc2TQCkW96PT-32">
          <mxGeometry y="52" width="195" height="8" as="geometry" />
        </mxCell>
        <mxCell id="_aXG8rA2rc2TQCkW96PT-35" value="+ method(type): type" style="text;strokeColor=none;fillColor=none;align=left;verticalAlign=top;spacingLeft=4;spacingRight=4;overflow=hidden;rotatable=0;points=[[0,0.5],[1,0.5]];portConstraint=eastwest;" vertex="1" parent="_aXG8rA2rc2TQCkW96PT-32">
          <mxGeometry y="60" width="195" height="26" as="geometry" />
        </mxCell>
        <mxCell id="_aXG8rA2rc2TQCkW96PT-36" value="V2SDK" style="swimlane;fontStyle=1;align=center;verticalAlign=top;childLayout=stackLayout;horizontal=1;startSize=26;horizontalStack=0;resizeParent=1;resizeParentMax=0;resizeLast=0;collapsible=1;marginBottom=0;" vertex="1" parent="1">
          <mxGeometry x="1140" y="720" width="160" height="86" as="geometry" />
        </mxCell>
        <mxCell id="_aXG8rA2rc2TQCkW96PT-37" value="+ field: type" style="text;strokeColor=none;fillColor=none;align=left;verticalAlign=top;spacingLeft=4;spacingRight=4;overflow=hidden;rotatable=0;points=[[0,0.5],[1,0.5]];portConstraint=eastwest;" vertex="1" parent="_aXG8rA2rc2TQCkW96PT-36">
          <mxGeometry y="26" width="160" height="26" as="geometry" />
        </mxCell>
        <mxCell id="_aXG8rA2rc2TQCkW96PT-38" value="" style="line;strokeWidth=1;fillColor=none;align=left;verticalAlign=middle;spacingTop=-1;spacingLeft=3;spacingRight=3;rotatable=0;labelPosition=right;points=[];portConstraint=eastwest;" vertex="1" parent="_aXG8rA2rc2TQCkW96PT-36">
          <mxGeometry y="52" width="160" height="8" as="geometry" />
        </mxCell>
        <mxCell id="_aXG8rA2rc2TQCkW96PT-39" value="+ method(type): type" style="text;strokeColor=none;fillColor=none;align=left;verticalAlign=top;spacingLeft=4;spacingRight=4;overflow=hidden;rotatable=0;points=[[0,0.5],[1,0.5]];portConstraint=eastwest;" vertex="1" parent="_aXG8rA2rc2TQCkW96PT-36">
          <mxGeometry y="60" width="160" height="26" as="geometry" />
        </mxCell>
        <mxCell id="_aXG8rA2rc2TQCkW96PT-40" value="" style="endArrow=open;endFill=1;endSize=12;html=1;exitX=0.497;exitY=1.051;exitDx=0;exitDy=0;exitPerimeter=0;" edge="1" parent="1" source="_aXG8rA2rc2TQCkW96PT-18" target="_aXG8rA2rc2TQCkW96PT-32">
          <mxGeometry width="160" relative="1" as="geometry">
            <mxPoint x="760" y="520" as="sourcePoint" />
            <mxPoint x="920" y="520" as="targetPoint" />
          </mxGeometry>
        </mxCell>
        <mxCell id="_aXG8rA2rc2TQCkW96PT-41" value="" style="endArrow=open;endFill=1;endSize=12;html=1;entryX=0.5;entryY=0;entryDx=0;entryDy=0;" edge="1" parent="1" target="_aXG8rA2rc2TQCkW96PT-36">
          <mxGeometry width="160" relative="1" as="geometry">
            <mxPoint x="1220" y="560" as="sourcePoint" />
            <mxPoint x="1003.5333940285268" y="600" as="targetPoint" />
          </mxGeometry>
        </mxCell>
        <mxCell id="_aXG8rA2rc2TQCkW96PT-42" value="ITUIPlayerSignallingService" style="swimlane;fontStyle=3;align=center;verticalAlign=top;childLayout=stackLayout;horizontal=1;startSize=26;horizontalStack=0;resizeParent=1;resizeParentMax=0;resizeLast=0;collapsible=1;marginBottom=0;" vertex="1" parent="1">
          <mxGeometry x="735" y="350" width="175.93" height="54" as="geometry" />
        </mxCell>
        <mxCell id="_aXG8rA2rc2TQCkW96PT-43" value="" style="line;strokeWidth=1;fillColor=none;align=left;verticalAlign=middle;spacingTop=-1;spacingLeft=3;spacingRight=3;rotatable=0;labelPosition=right;points=[];portConstraint=eastwest;" vertex="1" parent="_aXG8rA2rc2TQCkW96PT-42">
          <mxGeometry y="26" width="175.93" height="8" as="geometry" />
        </mxCell>
        <mxCell id="_aXG8rA2rc2TQCkW96PT-44" value="+ method(type): type" style="text;strokeColor=none;fillColor=none;align=left;verticalAlign=top;spacingLeft=4;spacingRight=4;overflow=hidden;rotatable=0;points=[[0,0.5],[1,0.5]];portConstraint=eastwest;" vertex="1" parent="_aXG8rA2rc2TQCkW96PT-42">
          <mxGeometry y="34" width="175.93" height="20" as="geometry" />
        </mxCell>
        <mxCell id="_aXG8rA2rc2TQCkW96PT-45" value="ITUIPlayerSignallingListener" style="swimlane;fontStyle=3;align=center;verticalAlign=top;childLayout=stackLayout;horizontal=1;startSize=26;horizontalStack=0;resizeParent=1;resizeParentMax=0;resizeLast=0;collapsible=1;marginBottom=0;" vertex="1" parent="1">
          <mxGeometry x="630" y="10" width="190" height="54" as="geometry" />
        </mxCell>
        <mxCell id="_aXG8rA2rc2TQCkW96PT-46" value="" style="line;strokeWidth=1;fillColor=none;align=left;verticalAlign=middle;spacingTop=-1;spacingLeft=3;spacingRight=3;rotatable=0;labelPosition=right;points=[];portConstraint=eastwest;" vertex="1" parent="_aXG8rA2rc2TQCkW96PT-45">
          <mxGeometry y="26" width="190" height="8" as="geometry" />
        </mxCell>
        <mxCell id="_aXG8rA2rc2TQCkW96PT-47" value="+ method(type): type" style="text;strokeColor=none;fillColor=none;align=left;verticalAlign=top;spacingLeft=4;spacingRight=4;overflow=hidden;rotatable=0;points=[[0,0.5],[1,0.5]];portConstraint=eastwest;" vertex="1" parent="_aXG8rA2rc2TQCkW96PT-45">
          <mxGeometry y="34" width="190" height="20" as="geometry" />
        </mxCell>
        <mxCell id="_aXG8rA2rc2TQCkW96PT-48" value="ITUIPlayerStreamListener" style="swimlane;fontStyle=3;align=center;verticalAlign=top;childLayout=stackLayout;horizontal=1;startSize=26;horizontalStack=0;resizeParent=1;resizeParentMax=0;resizeLast=0;collapsible=1;marginBottom=0;" vertex="1" parent="1">
          <mxGeometry x="900" y="10" width="190" height="54" as="geometry" />
        </mxCell>
        <mxCell id="_aXG8rA2rc2TQCkW96PT-49" value="" style="line;strokeWidth=1;fillColor=none;align=left;verticalAlign=middle;spacingTop=-1;spacingLeft=3;spacingRight=3;rotatable=0;labelPosition=right;points=[];portConstraint=eastwest;" vertex="1" parent="_aXG8rA2rc2TQCkW96PT-48">
          <mxGeometry y="26" width="190" height="8" as="geometry" />
        </mxCell>
        <mxCell id="_aXG8rA2rc2TQCkW96PT-50" value="+ method(type): type" style="text;strokeColor=none;fillColor=none;align=left;verticalAlign=top;spacingLeft=4;spacingRight=4;overflow=hidden;rotatable=0;points=[[0,0.5],[1,0.5]];portConstraint=eastwest;" vertex="1" parent="_aXG8rA2rc2TQCkW96PT-48">
          <mxGeometry y="34" width="190" height="20" as="geometry" />
        </mxCell>
        <mxCell id="_aXG8rA2rc2TQCkW96PT-51" value="" style="endArrow=block;dashed=1;endFill=0;endSize=12;html=1;entryX=0.425;entryY=1;entryDx=0;entryDy=0;entryPerimeter=0;" edge="1" parent="1" target="_aXG8rA2rc2TQCkW96PT-47">
          <mxGeometry width="160" relative="1" as="geometry">
            <mxPoint x="550" y="186" as="sourcePoint" />
            <mxPoint x="500" y="70" as="targetPoint" />
            <Array as="points">
              <mxPoint x="550" y="120" />
              <mxPoint x="711" y="120" />
            </Array>
          </mxGeometry>
        </mxCell>
        <mxCell id="_aXG8rA2rc2TQCkW96PT-52" value="" style="endArrow=block;dashed=1;endFill=0;endSize=12;html=1;exitX=0.63;exitY=-0.01;exitDx=0;exitDy=0;entryX=0.54;entryY=1.3;entryDx=0;entryDy=0;entryPerimeter=0;exitPerimeter=0;" edge="1" parent="1" source="_aXG8rA2rc2TQCkW96PT-6" target="_aXG8rA2rc2TQCkW96PT-50">
          <mxGeometry width="160" relative="1" as="geometry">
            <mxPoint x="560" y="200" as="sourcePoint" />
            <mxPoint x="510.75" y="70" as="targetPoint" />
            <Array as="points">
              <mxPoint x="602" y="160" />
              <mxPoint x="1003" y="160" />
            </Array>
          </mxGeometry>
        </mxCell>
        <mxCell id="_aXG8rA2rc2TQCkW96PT-53" value="PlayerViewManager" style="swimlane;fontStyle=1;align=center;verticalAlign=top;childLayout=stackLayout;horizontal=1;startSize=26;horizontalStack=0;resizeParent=1;resizeParentMax=0;resizeLast=0;collapsible=1;marginBottom=0;" vertex="1" parent="1">
          <mxGeometry x="-120" y="384" width="160" height="98" as="geometry" />
        </mxCell>
        <mxCell id="_aXG8rA2rc2TQCkW96PT-54" value="+ field: type&#xa;+ field status" style="text;strokeColor=none;fillColor=none;align=left;verticalAlign=top;spacingLeft=4;spacingRight=4;overflow=hidden;rotatable=0;points=[[0,0.5],[1,0.5]];portConstraint=eastwest;" vertex="1" parent="_aXG8rA2rc2TQCkW96PT-53">
          <mxGeometry y="26" width="160" height="44" as="geometry" />
        </mxCell>
        <mxCell id="_aXG8rA2rc2TQCkW96PT-55" value="" style="line;strokeWidth=1;fillColor=none;align=left;verticalAlign=middle;spacingTop=-1;spacingLeft=3;spacingRight=3;rotatable=0;labelPosition=right;points=[];portConstraint=eastwest;" vertex="1" parent="_aXG8rA2rc2TQCkW96PT-53">
          <mxGeometry y="70" width="160" height="8" as="geometry" />
        </mxCell>
        <mxCell id="_aXG8rA2rc2TQCkW96PT-56" value="+ method(type): type" style="text;strokeColor=none;fillColor=none;align=left;verticalAlign=top;spacingLeft=4;spacingRight=4;overflow=hidden;rotatable=0;points=[[0,0.5],[1,0.5]];portConstraint=eastwest;" vertex="1" parent="_aXG8rA2rc2TQCkW96PT-53">
          <mxGeometry y="78" width="160" height="20" as="geometry" />
        </mxCell>
        <mxCell id="_aXG8rA2rc2TQCkW96PT-57" value="" style="endArrow=open;endFill=1;endSize=12;html=1;exitX=0;exitY=0.25;exitDx=0;exitDy=0;" edge="1" parent="1">
          <mxGeometry width="160" relative="1" as="geometry">
            <mxPoint x="220" y="420" as="sourcePoint" />
            <mxPoint x="40" y="419" as="targetPoint" />
          </mxGeometry>
        </mxCell>
        <mxCell id="_aXG8rA2rc2TQCkW96PT-62" value="TXVideoViews" style="swimlane;fontStyle=1;align=center;verticalAlign=top;childLayout=stackLayout;horizontal=1;startSize=26;horizontalStack=0;resizeParent=1;resizeParentMax=0;resizeLast=0;collapsible=1;marginBottom=0;" vertex="1" parent="1">
          <mxGeometry x="-470" y="324" width="160" height="60" as="geometry" />
        </mxCell>
        <mxCell id="_aXG8rA2rc2TQCkW96PT-63" value="" style="line;strokeWidth=1;fillColor=none;align=left;verticalAlign=middle;spacingTop=-1;spacingLeft=3;spacingRight=3;rotatable=0;labelPosition=right;points=[];portConstraint=eastwest;" vertex="1" parent="_aXG8rA2rc2TQCkW96PT-62">
          <mxGeometry y="26" width="160" height="34" as="geometry" />
        </mxCell>
        <mxCell id="_aXG8rA2rc2TQCkW96PT-64" value="" style="endArrow=diamondThin;endFill=1;endSize=24;html=1;entryX=0.5;entryY=0;entryDx=0;entryDy=0;" edge="1" parent="1" target="_aXG8rA2rc2TQCkW96PT-53">
          <mxGeometry width="160" relative="1" as="geometry">
            <mxPoint x="-311" y="340" as="sourcePoint" />
            <mxPoint x="-120" y="619" as="targetPoint" />
            <Array as="points">
              <mxPoint x="-40" y="340" />
            </Array>
          </mxGeometry>
        </mxCell>
        <mxCell id="_aXG8rA2rc2TQCkW96PT-71" value="FunctionWidget" style="swimlane;fontStyle=1;align=center;verticalAlign=top;childLayout=stackLayout;horizontal=1;startSize=26;horizontalStack=0;resizeParent=1;resizeParentMax=0;resizeLast=0;collapsible=1;marginBottom=0;" vertex="1" parent="1">
          <mxGeometry x="-470" y="520" width="160" height="60" as="geometry" />
        </mxCell>
        <mxCell id="_aXG8rA2rc2TQCkW96PT-72" value="" style="line;strokeWidth=1;fillColor=none;align=left;verticalAlign=middle;spacingTop=-1;spacingLeft=3;spacingRight=3;rotatable=0;labelPosition=right;points=[];portConstraint=eastwest;" vertex="1" parent="_aXG8rA2rc2TQCkW96PT-71">
          <mxGeometry y="26" width="160" height="34" as="geometry" />
        </mxCell>
        <mxCell id="_aXG8rA2rc2TQCkW96PT-73" value="TUIPlayerActivity" style="swimlane;fontStyle=1;align=center;verticalAlign=top;childLayout=stackLayout;horizontal=1;startSize=26;horizontalStack=0;resizeParent=1;resizeParentMax=0;resizeLast=0;collapsible=1;marginBottom=0;" vertex="1" parent="1">
          <mxGeometry x="220" y="400" width="170" height="110" as="geometry" />
        </mxCell>
        <mxCell id="_aXG8rA2rc2TQCkW96PT-74" value="+ field: TUIPlayerService" style="text;strokeColor=none;fillColor=none;align=left;verticalAlign=top;spacingLeft=4;spacingRight=4;overflow=hidden;rotatable=0;points=[[0,0.5],[1,0.5]];portConstraint=eastwest;" vertex="1" parent="_aXG8rA2rc2TQCkW96PT-73">
          <mxGeometry y="26" width="170" height="34" as="geometry" />
        </mxCell>
        <mxCell id="_aXG8rA2rc2TQCkW96PT-75" value="" style="line;strokeWidth=1;fillColor=none;align=left;verticalAlign=middle;spacingTop=-1;spacingLeft=3;spacingRight=3;rotatable=0;labelPosition=right;points=[];portConstraint=eastwest;" vertex="1" parent="_aXG8rA2rc2TQCkW96PT-73">
          <mxGeometry y="60" width="170" height="8" as="geometry" />
        </mxCell>
        <mxCell id="_aXG8rA2rc2TQCkW96PT-76" value="+ startPlay(url)&#xa;+ stopPlay()" style="text;strokeColor=none;fillColor=none;align=left;verticalAlign=top;spacingLeft=4;spacingRight=4;overflow=hidden;rotatable=0;points=[[0,0.5],[1,0.5]];portConstraint=eastwest;" vertex="1" parent="_aXG8rA2rc2TQCkW96PT-73">
          <mxGeometry y="68" width="170" height="42" as="geometry" />
        </mxCell>
        <mxCell id="_aXG8rA2rc2TQCkW96PT-77" value="" style="endArrow=diamondThin;endFill=1;endSize=24;html=1;exitX=1;exitY=0.5;exitDx=0;exitDy=0;" edge="1" parent="1" source="_aXG8rA2rc2TQCkW96PT-71">
          <mxGeometry width="160" relative="1" as="geometry">
            <mxPoint x="-310" y="644" as="sourcePoint" />
            <mxPoint x="-40" y="480" as="targetPoint" />
            <Array as="points">
              <mxPoint x="-40" y="550" />
            </Array>
          </mxGeometry>
        </mxCell>
      </root>
    </mxGraphModel>
  </diagram>
</mxfile>
